<?xml version="1.0" encoding="UTF-8" standalone="no"?>
<!-- Created with Inkscape (http://www.inkscape.org/) -->

<svg
   width="35mm"
   height="20mm"
   viewBox="0 0 35 20"
   version="1.1"
   id="svg1"
   xml:space="preserve"
   xmlns="http://www.w3.org/2000/svg"
   xmlns:svg="http://www.w3.org/2000/svg">
   <style>#logo_c {fill:gold;} #logo_m {fill:#9D65CA;}</style>
<g id="logo_c" class="logo">
    <circle cx="6.0662556" cy="19.042946" r="0.86921543" />
    <circle cx="8.2991171" cy="18.444925" r="0.86921543" />
    <circle cx="9.8595409" cy="16.618484" r="0.86921543" />
    <circle cx="10.588348" cy="14.428501" r="0.86921543" />
    <circle cx="3.8274024" cy="18.39352" r="0.86921543" />
    <circle cx="2.2607026" cy="16.681454" r="0.86921543" />
    <circle cx="1.5346036" cy="14.408585" r="0.86921543" />
    <circle cx="1.3381974" cy="12.236803" r="0.86921543" />
    <circle cx="1.2025441" cy="9.8978844" r="0.86921543" />
    <circle cx="1.3359827" cy="7.66891" r="0.86921543" />
    <circle cx="1.5186137" cy="5.4758496" r="0.86921543" />
    <circle cx="2.3316653" cy="3.0797482" r="0.86921543" />
    <circle cx="3.8868017" cy="1.4784846" r="0.86921543" />
    <circle cx="6.0328846" cy="0.95536935" r="0.86921543" />
    <circle cx="8.2889128" cy="1.4257311" r="0.86921543" />
    <circle cx="9.8688974" cy="3.1120913" r="0.86921543" />
    <circle cx="10.633615" cy="5.4891381" r="0.86921543" />
</g>
<g id="logo_m" class="logo">
    <circle cx="13.79059" cy="19.042946" r="0.86921543" />
    <circle cx="18.250431" cy="19.042946" r="0.86921543" />
    <circle cx="15.990208" cy="19.042946" r="0.86921543" />
    <circle cx="15.990208" cy="16.782" r="0.86921543" />
    <circle cx="15.990208" cy="14.521051" r="0.86921543" />
    <circle cx="15.990208" cy="12.260105" r="0.86921543" />
    <circle cx="27.353859" cy="5.4772635" r="0.86921543" />
    <circle cx="27.353859" cy="7.7382107" r="0.86921543" />
    <circle cx="27.353859" cy="9.9991579" r="0.86921543" />
    <circle cx="27.353859" cy="12.260105" r="0.86921543" />
    <circle cx="27.353859" cy="14.521051" r="0.86921543" />
    <circle cx="27.353859" cy="16.782" r="0.86921543" />
    <circle cx="27.353859" cy="19.042946" r="0.86921543" />
    <circle cx="25.214554" cy="19.042946" r="0.86921543" />
    <circle cx="29.455055" cy="19.042946" r="0.86921543" />
    <circle cx="27.353859" cy="3.2163165" r="0.86921543" />
    <circle cx="27.353859" cy="0.95536935" r="0.86921543" />
    <circle cx="24.287283" cy="5.6517954" r="0.86921543" />
    <circle cx="24.677544" cy="3.2599494" r="0.86921543" />
    <circle cx="25.093134" cy="0.95536935" r="0.86921543" />
    <circle cx="23.750273" cy="7.9127426" r="0.86921543" />
    <circle cx="13.677732" cy="0.95536935" r="0.86921543" />
    <circle cx="15.990207" cy="5.4772635" r="0.86921543" />
    <circle cx="15.990208" cy="3.2163165" r="0.86921543" />
    <circle cx="15.990208" cy="0.95536935" r="0.86921543" />
    <circle cx="15.990208" cy="7.7382107" r="0.86921543" />
    <circle cx="15.990208" cy="9.9991579" r="0.86921543" />
    <circle cx="18.292221" cy="0.95536935" r="0.86921543" />
    <circle cx="18.805351" cy="3.2163165" r="0.86921543" />
    <circle cx="19.219492" cy="5.6517954" r="0.86921543" />
    <circle cx="19.732622" cy="7.9127426" r="0.86921543" />
    <circle cx="20.320042" cy="10.205626" r="0.86921543" />
    <circle cx="23.022417" cy="10.205626" r="0.86921543" />
    <circle cx="21.749718" cy="12.257045" r="0.86921543" />
    <circle cx="29.475721" cy="0.95536935" r="0.86921543" />
</g>
</svg>
