<?xml version="1.0" encoding="UTF-8" standalone="no"?>
<!-- Created with Inkscape (http://www.inkscape.org/) -->

<svg
   width="26.458334mm"
   height="17.197916mm"
   viewBox="0 0 26.458334 17.197916"
   version="1.1"
   id="svg1"
   xml:space="preserve"
   xmlns="http://www.w3.org/2000/svg"
   xmlns:svg="http://www.w3.org/2000/svg"><style
     id="style3">#logo-m,#g4 {   }
#logo-c,#g2 {   }
</style><defs id="defs1" />
<g id="layer2" style="display:inline">
	<circle cx="5.2626505" cy="16.360651" r="0.74859583" />
	<circle cx="7.1856613" cy="15.882911" r="0.74859583" />
	<circle cx="8.5295477" cy="14.309921" r="0.74859583" />
	<circle cx="9.1572189" cy="12.423839" r="0.74859583" />
	<circle cx="3.3344791" cy="15.838638" r="0.74859583" />
	<circle cx="1.9851878" cy="14.364153" r="0.74859583" />
	<circle cx="1.3598483" cy="12.406686" r="0.74859583" />
	<circle cx="1.190697" cy="10.536279" r="0.74859583" />
	<circle cx="1.073868" cy="8.5219278" r="0.74859583" />
	<circle cx="1.1887896" cy="6.6022649" r="0.74859583" />
	<circle cx="1.3460772" cy="4.713532" r="0.74859583" />
	<circle cx="2.046303" cy="2.6499336" r="0.74859583" />
	<circle cx="3.3856356" cy="1.2708747" r="0.74859583" />
	<circle cx="5.2339101" cy="0.79668498" r="0.74859583" />
	<circle cx="7.1768727" cy="1.2254417" r="0.74859583" />
	<circle cx="8.5376053" cy="2.6777885" r="0.74859583" />
	<circle cx="9.1962051" cy="4.7249761" r="0.74859583" />
	<circle cx="11.915092" cy="16.35721" r="0.74859583" />
	<circle cx="15.756048" cy="16.35721" r="0.74859583" />
	<circle cx="13.83197" cy="16.364412" r="0.74859583" />
	<circle cx="13.812175" cy="14.391736" r="0.74859583" />
	<circle cx="13.812176" cy="12.428061" r="0.74859583" />
	<circle cx="13.786977" cy="10.494981" r="0.74859583" />
	<circle cx="23.550598" cy="4.7069578" r="0.74859583" />
	<circle cx="23.556536" cy="6.6456356" r="0.74859583" />
	<circle cx="23.598434" cy="8.4813948" r="0.74859583" />
	<circle cx="23.549116" cy="10.554502" r="0.74859583" />
	<circle cx="23.552082" cy="12.426226" r="0.74859583" />
	<circle cx="23.574516" cy="14.32763" r="0.74859583" />
	<circle cx="23.643303" cy="16.397943" r="0.74859583" />
	<circle cx="21.753771" cy="16.385899" r="0.74859583" />
	<circle cx="25.405825" cy="16.336578" r="0.74859583" />
	<circle cx="23.601402" cy="2.6963508" r="0.74859583" />
	<circle cx="23.54911" cy="0.82035136" r="0.74859583" />
	<circle cx="20.614769" cy="4.7143788" r="0.74859583" />
	<circle cx="21.140968" cy="2.7306526" r="0.74859583" />
	<circle cx="21.6492" cy="0.78883433" r="0.74859583" />
	<circle cx="20.063179" cy="6.591866" r="0.74859583" />
	<circle cx="11.817894" cy="0.78099132" r="0.74859583" />
	<circle cx="13.833771" cy="4.6867452" r="0.74859583" />
	<circle cx="13.837364" cy="2.6870735" r="0.74859583" />
	<circle cx="13.781578" cy="0.79359508" r="0.74859583" />
	<circle cx="13.78698" cy="6.6054235" r="0.74859583" />
	<circle cx="13.797775" cy="8.5295038" r="0.74859583" />
	<circle cx="15.792038" cy="0.79225993" r="0.74859583" />
	<circle cx="16.233963" cy="2.6967781" r="0.74859583" />
	<circle cx="16.72126" cy="4.7183995" r="0.74859583" />
	<circle cx="17.265961" cy="6.5931249" r="0.74859583" />
	<circle cx="17.792084" cy="8.5239191" r="0.74859583" />
	<circle cx="19.701431" cy="8.5216379" r="0.74859583" />
	<circle cx="18.769745" cy="10.553712" r="0.74859583" />
	<circle cx="25.423622" cy="0.80236888" r="0.74859583" />
	</g>
</svg>
